# xmcd CD database file
#
# Track frame offsets:
#	150
#	5078
#	19990
#	41874
#	79836
#	97353
#	126327
#	149199
#	173390
#	193777
#	212370
#	246815
#	268383
#
# Disc length: 3909 seconds
#
# Revision: 0
# Processed by: cddbd v1.4PL0 Copyright (c) Steve Scherf et al.
# Submitted via: CDex 1.40Beta8
#
DISCID=c80f430d
DTITLE=King B. and B.B.B. - Let The Big Dog Eat
DYEAR=2000
DGENRE=Blues
TTITLE0=Beginning
TTITLE1=Blues For Robert J.
TTITLE2=I'm In A Mood For Love
TTITLE3=Blues For Nikita
TTITLE4=I Loved Another Woman
TTITLE5=King B.
TTITLE6=Savitar Boogie
TTITLE7=Big Fat Mama
TTITLE8=Red House
TTITLE9=Why People Like That
TTITLE10=Need Your Love So Bad
TTITLE11=Give My Blues
TTITLE12=Thrill Is Gone
EXTD=YEAR: 2000 ID3G: 0
EXTT0=
EXTT1=
EXTT2=
EXTT3=
EXTT4=
EXTT5=
EXTT6=
EXTT7=
EXTT8=
EXTT9=
EXTT10=
EXTT11=
EXTT12=
PLAYORDER=
